<?xml version="1.0" encoding="iso-8859-1"?>
<!DOCTYPE svg PUBLIC "-//W3C//DTD SVG 1.1 Basic//EN" "http://www.w3.org/Graphics/SVG/1.1/DTD/svg11-basic.dtd">
<svg version="1.1" baseProfile="basic"
   xmlns="http://www.w3.org/2000/svg" xmlns:xlink="http://www.w3.org/1999/xlink" x="0px" y="0px" width="32px" height="32px"
   viewBox="0 0 32 32" xml:space="preserve">
  <path transform="matrix(0.032,0,0,0.032,0,0)" stroke="none" style="fill:#7F63F4" d="M 500 0 C 224 0 0 224 0 500 C 0 775 224 1000 500 1000 C 775 1000 1000 775 1000 500 C 1000 224 775 0 500 0 z M 198 848 C 235 832 282 822 335 811 C 354 807 375 803 396 798 L 411 794 L 411 714 C 466 742 533 742 588 715 L 588 794 L 603 798 C 624 803 645 807 664 811 C 717 822 764 832 801 848 C 720 918 615 960 500 960 C 384 960 279 918 198 848 z M 713 276 C 713 276 727 309 723 357 C 720 402 710 452 707 468 C 687 600 600 697 499 697 C 401 697 314 602 293 472 L 290 456 L 289 456 C 240 246 325 212 326 212 L 335 209 L 338 201 C 366 127 492 125 498 125 C 498 125 498 125 498 125 L 500 125 L 501 125 C 605 126 664 155 691 218 C 698 236 715 244 730 247 C 728 248 727 249 725 249 L 703 256 L 713 276 z M 832 819 C 789 798 734 786 672 773 C 658 770 643 767 627 763 L 627 690 C 687 644 731 567 745 475 C 748 460 759 407 762 360 C 765 324 759 295 754 278 C 772 264 779 243 780 231 L 782 208 L 759 210 C 746 211 729 208 727 203 C 683 99 577 86 502 86 L 500 86 L 498 86 L 496 86 C 490 86 347 87 305 179 C 277 194 198 258 255 480 L 255 480 C 270 570 314 645 372 690 L 372 763 C 356 767 341 770 327 773 C 265 786 211 798 167 818 C 88 736 39 623 39 500 C 39 245 245 39 500 39 C 754 39 960 245 960 500 C 960 623 911 736 832 819 z"/>
</svg>